<svg width="29" height="28" viewBox="0 0 29 28" version="1.1" xmlns="http://www.w3.org/2000/svg" xmlns:xlink="http://www.w3.org/1999/xlink"><title>logo-facebook</title><desc>Created with Sketch Internal.</desc><g id="Page-1" stroke="none" stroke-width="1" fill="none" fill-rule="evenodd"><g id="Home-2017-—-v3.12-—-Copy" transform="translate(-317.000000, -4826.000000)" fill-rule="nonzero"><g id="Block-/-Logos" transform="translate(221.000000, 4779.000000)"><g id="Logos" transform="translate(0.000000, 44.000000)"><g id="logo-facebook" transform="translate(96.000000, 0.000000)"><polygon id="bounds" fill-opacity="0" fill="#F9FAFB" points="0.653061 0 28.653061 0 28.653061 34 0.653061 34"/><path d="M2.1983936,3 C1.34484126,3 0.653061,3.69167535 0.653061,4.5453326 L0.653061,29.4546674 C0.653061,30.3081148 1.34484126,31 2.1983936,31 L15.6086913,31 L15.6086913,20.1569687 L11.959797,20.1569687 L11.959797,15.9311712 L15.6086913,15.9311712 L15.6086913,12.8148029 C15.6086913,9.19822102 17.8175832,7.22894482 21.0437929,7.22894482 C22.5891255,7.22894482 23.9173982,7.34403171 24.3044132,7.39543789 L24.3044132,11.1749459 L22.0668807,11.175995 C20.3122515,11.175995 19.9725511,12.0097192 19.9725511,13.2331862 L19.9725511,15.9311712 L24.1571188,15.9311712 L23.6122133,20.1569687 L19.9725511,20.1569687 L19.9725511,31 L27.1077284,31 C27.9611758,31 28.653061,30.3081148 28.653061,29.4546674 L28.653061,4.5453326 C28.653061,3.69167535 27.9611758,3 27.1077284,3 L2.1983936,3 Z" id="FB-Square" fill="#262626"/></g></g></g></g></g></svg>