<svg width="77" height="25" viewBox="0 0 77 25" version="1.1" xmlns="http://www.w3.org/2000/svg" xmlns:xlink="http://www.w3.org/1999/xlink"><title>logo-google</title><desc>Created with Sketch Internal.</desc><g id="Page-1" stroke="none" stroke-width="1" fill="none" fill-rule="evenodd"><g id="Home-2017-—-v3.12-—-Copy" transform="translate(-559.000000, -4832.000000)" fill-rule="nonzero"><g id="Block-/-Logos" transform="translate(221.000000, 4779.000000)"><g id="Logos" transform="translate(0.000000, 44.000000)"><g id="logo-google" transform="translate(338.000000, 3.000000)"><polygon id="bounds" fill-opacity="0" fill="#F9FAFB" points="-3.87999535e-07 0 76.9999996 0 76.9999996 34 -3.87999535e-07 34"/><path d="M9.9460928,14.8289035 L9.9460928,17.4690187 L16.3182796,17.4690187 C16.0034817,21.1711789 12.8929777,22.7500122 9.9568835,22.7500122 C6.20045887,22.7500122 2.92252822,19.8233013 2.92252822,15.7212046 C2.92252822,11.7251215 6.0472298,8.64759489 9.9651308,8.64759489 C12.9878595,8.64759489 14.7690319,10.5556889 14.7690319,10.5556889 L16.6358368,8.64141266 C16.6358368,8.64141266 14.2397441,6 9.8697095,6 C4.30498129,5.99992368 -3.87999535e-07,10.6506356 -3.87999535e-07,15.6740365 C-3.87999535e-07,20.5963847 4.04954811,25.3961569 10.0115311,25.3961569 C15.2551565,25.3961569 19.093514,21.8391645 19.093514,16.5792363 C19.093514,15.4695651 18.9308122,14.8282166 18.9308122,14.8282166 L9.9460928,14.8289035 Z M26.2910414,12.916917 C22.6042943,12.916917 19.9621718,15.771044 19.9621718,19.0997521 C19.9621718,22.477689 22.524905,25.384861 26.3343586,25.384861 C29.7829378,25.384861 32.6081952,22.7748174 32.6081952,19.172336 C32.6081952,15.0433733 29.3217861,12.916917 26.2910414,12.916917 L26.2910414,12.916917 Z M26.3277015,15.3656122 C28.1407067,15.3656122 29.858753,16.8170611 29.858753,19.1558501 C29.858753,21.4450286 28.148029,22.937845 26.3193772,22.937845 C24.3101339,22.937845 22.7250454,21.3443575 22.7250454,19.137685 C22.7250454,16.9783332 24.2904793,15.3656122 26.3277015,15.3656122 L26.3277015,15.3656122 Z M40.055452,12.916917 C36.3687049,12.916917 33.7265825,15.771044 33.7265825,19.0997521 C33.7265825,22.477689 36.2893156,25.384861 40.0987693,25.384861 C43.5473484,25.384861 46.3726058,22.7748174 46.3726058,19.172336 C46.3726058,15.0433733 43.0861967,12.916917 40.055452,12.916917 L40.055452,12.916917 Z M40.0921114,15.3656122 C41.9051166,15.3656122 43.6231629,16.8170611 43.6231629,19.1558501 C43.6231629,21.4450286 41.9124389,22.937845 40.0837871,22.937845 C38.0745438,22.937845 36.4894553,21.3443575 36.4894553,19.137685 C36.4894553,16.9783332 38.0548892,15.3656122 40.0921114,15.3656122 L40.0921114,15.3656122 Z M53.5562593,12.9234809 C50.1722707,12.9234809 47.5123434,15.8583584 47.5123434,19.1524918 C47.5123434,22.9047968 50.5961171,25.393104 53.497912,25.393104 C55.2921875,25.393104 56.2462466,24.6878343 56.9506533,23.8783063 L56.9506533,25.1075768 C56.9506533,27.2583803 55.6318658,28.5463438 53.6412752,28.5463438 C51.7182812,28.5463438 50.7537396,27.1304617 50.4185317,26.3270015 L47.9990076,27.3285982 C48.8573371,29.1257938 50.5852493,31 53.6613153,31 C57.0258805,31 59.5902323,28.9014782 59.5902323,24.500345 L59.5902323,13.2983068 L56.9507304,13.2983068 L56.9507304,14.3543224 C56.1391096,13.4882767 55.0292008,12.9236335 53.5562593,12.9236335 L53.5562593,12.9234809 Z M53.80121,15.367215 C55.4602924,15.367215 57.1639254,16.7700457 57.1639254,19.1656958 C57.1639254,21.600729 55.4639151,22.9427297 53.7645214,22.9427297 C51.9604571,22.9427297 50.2817971,21.4921967 50.2817971,19.1888219 C50.2817971,16.7954615 52.0252018,15.367215 53.8011329,15.367215 L53.80121,15.367215 Z M71.3263616,12.9085977 C68.1342948,12.9085977 65.4540963,15.4234656 65.4540963,19.1343268 C65.4540963,23.0609552 68.4415237,25.3897458 71.632974,25.3897458 C74.2966009,25.3897458 75.9314041,23.9467688 76.9070448,22.6539206 L74.7307757,21.2200261 C74.1660479,22.0879036 73.2219163,22.9360895 71.6463083,22.9360895 C69.8764662,22.9360895 69.0626872,21.9763946 68.5585266,21.0467712 L76.9999996,17.5783143 L76.5617475,16.5618345 C75.7462728,14.5713108 73.8440125,12.9089793 71.3266777,12.9089793 L71.3263616,12.9085977 Z M71.4363351,15.306156 C72.5865552,15.306156 73.4143622,15.9117239 73.7659104,16.6377766 L68.1285757,18.9709939 C67.8855365,17.1646395 69.6137724,15.306156 71.4363351,15.306156 Z M61.4296749,25.0196518 L64.2025199,25.0196518 L64.2025199,6.64470679 L61.4296749,6.64470679 L61.4296749,25.0196518 Z" id="Google" fill="#262626"/></g></g></g></g></g></svg>